<svg xmlns="http://www.w3.org/2000/svg" viewBox="0 0 500 500" role="img" aria-label="Palm Crest Roofing">
  <defs>
    <clipPath id="innerClipW">
      <circle cx="250" cy="250" r="170"/>
    </clipPath>
  </defs>
  <!-- Outer ring -->
  <circle cx="250" cy="250" r="230" fill="none" stroke="#FFFFFF" stroke-width="5"/>
  <circle cx="250" cy="250" r="170" fill="none" stroke="#FFFFFF" stroke-width="3"/>
  <!-- Dots -->
  <circle cx="20"  cy="250" r="7" fill="#FFFFFF"/>
  <circle cx="480" cy="250" r="7" fill="#FFFFFF"/>
  <!-- Arc paths -->
  <path id="topArcW"    d="M 46,250 A 204,204 0 0,1 454,250" fill="none"/>
  <path id="bottomArcW" d="M 46,250 A 204,204 0 0,0 454,250" fill="none"/>
  <text font-family="Montserrat,'Helvetica Neue',Arial,sans-serif"
        font-size="30" font-weight="800" letter-spacing="4" fill="#FFFFFF">
    <textPath href="#topArcW" startOffset="50%" text-anchor="middle">PALM CREST ROOFING</textPath>
  </text>
  <text font-family="Montserrat,'Helvetica Neue',Arial,sans-serif"
        font-size="27" font-weight="700" letter-spacing="6" fill="#FFFFFF" opacity="0.80">
    <textPath href="#bottomArcW" startOffset="50%" text-anchor="middle">PALM CREST</textPath>
  </text>
  <g clip-path="url(#innerClipW)">
    <circle cx="268" cy="304" r="105" fill="#FFFFFF" opacity="0.12"/>
    <path d="M 198 342 C 202 316 198 290 194 264 C 190 240 196 214 214 128"
          fill="none" stroke="#FFFFFF" stroke-width="9" stroke-linecap="round" opacity="0.85"/>
    <g fill="#FFFFFF" opacity="0.85">
      <path d="M 214 128 C 188 140 158 146 132 160 C 158 142 186 134 212 134 Z"/>
      <path d="M 214 128 C 190 110 164  96 142  88 C 166 100 190 112 212 126 Z"/>
      <path d="M 214 128 C 198 100 192  76 190  58 C 198  80 206 104 214 126 Z"/>
      <path d="M 214 128 C 212 100 212  76 212  58 C 216  76 216 102 216 126 Z"/>
      <path d="M 214 128 C 234 106 252  94 268  90 C 254 104 236 116 216 126 Z"/>
      <path d="M 214 128 C 246 134 270 148 282 164 C 260 146 236 138 216 132 Z"/>
    </g>
    <path d="M 318 342 C 316 322 314 306 312 288"
          fill="none" stroke="#FFFFFF" stroke-width="6" stroke-linecap="round" opacity="0.75"/>
    <g fill="#FFFFFF" opacity="0.75">
      <path d="M 312 288 C 294 294 276 298 264 310 C 280 294 298 288 312 292 Z"/>
      <path d="M 312 288 C 296 272 280 262 268 256 C 284 266 300 276 312 286 Z"/>
      <path d="M 312 288 C 310 268 312 252 312 240 C 314 254 314 270 314 286 Z"/>
      <path d="M 312 288 C 330 274 346 268 358 266 C 346 276 330 282 314 286 Z"/>
      <path d="M 312 288 C 334 292 350 304 354 318 C 338 302 320 294 314 290 Z"/>
    </g>
    <rect x="80" y="344" width="340" height="5" fill="#FFFFFF" rx="2.5"/>
    <path d="M 148 344 L 148 320 L 180 304 L 264 280 L 348 304 L 380 320 L 380 344 Z"
          fill="#FFFFFF" opacity="0.20"/>
    <path d="M 180 304 L 264 280 L 348 304"
          fill="none" stroke="#FFFFFF" stroke-width="3.5"
          stroke-linejoin="round" stroke-linecap="round"/>
  </g>
</svg>
