<svg xmlns="http://www.w3.org/2000/svg" viewBox="0 0 500 500" role="img" aria-label="Palm Crest Roofing">
  <defs>
    <linearGradient id="sunG" x1="0" y1="0" x2="0" y2="1">
      <stop offset="0%"   stop-color="#FDB347"/>
      <stop offset="55%"  stop-color="#E76F51"/>
      <stop offset="100%" stop-color="#C44536"/>
    </linearGradient>
    <clipPath id="ic">
      <circle cx="250" cy="250" r="188"/>
    </clipPath>
  </defs>

  <!-- Outer ring fill -->
  <circle cx="250" cy="250" r="246" fill="#EDE7DA"/>
  <!-- Outer border -->
  <circle cx="250" cy="250" r="246" fill="none" stroke="#0F1B18" stroke-width="6"/>
  <!-- Inner circle fill -->
  <circle cx="250" cy="250" r="188" fill="#FFFBF3"/>
  <!-- Inner border -->
  <circle cx="250" cy="250" r="188" fill="none" stroke="#0F1B18" stroke-width="4"/>

  <!-- Bullet dots at 9 and 3 o'clock on ring -->
  <circle cx="33"  cy="250" r="9" fill="#E76F51"/>
  <circle cx="467" cy="250" r="9" fill="#E76F51"/>

  <!-- Arc text paths at ring midpoint r=217 -->
  <path id="ta" d="M 33,250 A 217,217 0 0,1 467,250" fill="none"/>
  <path id="ba" d="M 33,250 A 217,217 0 0,0 467,250" fill="none"/>

  <!-- Top arc: PALM CREST ROOFING -->
  <text font-family="Montserrat,'Helvetica Neue',Arial,sans-serif"
        font-size="29" font-weight="800" letter-spacing="4" fill="#0F1B18">
    <textPath href="#ta" startOffset="50%" text-anchor="middle">PALM CREST ROOFING</textPath>
  </text>

  <!-- Bottom arc: PALM CREST -->
  <text font-family="Montserrat,'Helvetica Neue',Arial,sans-serif"
        font-size="28" font-weight="700" letter-spacing="7" fill="#E76F51">
    <textPath href="#ba" startOffset="50%" text-anchor="middle">PALM CREST</textPath>
  </text>

  <!-- INNER SCENE clipped to inner circle -->
  <g clip-path="url(#ic)">

    <!-- Sun disc (back layer) -->
    <circle cx="268" cy="348" r="92" fill="url(#sunG)"/>

    <!-- === MAIN TALL PALM === -->
    <!-- Trunk: slight S-curve from base to crown -->
    <path d="M 212,385 C 214,340 212,295 212,250 C 212,205 214,170 215,142"
          fill="none" stroke="#1B4332" stroke-width="8" stroke-linecap="round"/>
    <!-- Fronds from crown (215,142) — filled leaf shapes -->
    <!-- 1. Far left droop -->
    <path d="M 215,142 Q 155,150 108,178 Q 148,168 215,147 Z" fill="#1B4332"/>
    <!-- 2. Upper-left diagonal -->
    <path d="M 215,142 Q 172,116 132,104 Q 167,126 215,147 Z" fill="#1B4332"/>
    <!-- 3. Top-left -->
    <path d="M 215,142 Q 184,100 165,68  Q 185,108 217,140 Z" fill="#1B4332"/>
    <!-- 4. Near-vertical up -->
    <path d="M 215,142 Q 210,100 212,62  Q 220,100 217,140 Z" fill="#1B4332"/>
    <!-- 5. Top-right -->
    <path d="M 215,142 Q 244,100 264,70  Q 245,112 217,140 Z" fill="#1B4332"/>
    <!-- 6. Right horizontal -->
    <path d="M 215,142 Q 266,124 305,120 Q 260,134 215,147 Z" fill="#1B4332"/>
    <!-- 7. Right droop (arcs over sun) -->
    <path d="M 215,142 Q 272,150 308,178 Q 265,162 215,147 Z" fill="#1B4332"/>
    <!-- Coconuts -->
    <circle cx="212" cy="149" r="7"   fill="#5C3D0E"/>
    <circle cx="220" cy="147" r="6.5" fill="#5C3D0E"/>
    <circle cx="216" cy="155" r="6"   fill="#5C3D0E"/>

    <!-- === SMALL PALM (right side) === -->
    <!-- Trunk -->
    <path d="M 314,385 C 314,362 313,342 312,282"
          fill="none" stroke="#1B4332" stroke-width="6" stroke-linecap="round"/>
    <!-- Fronds from crown (312,282) -->
    <!-- 1. Left -->
    <path d="M 312,282 Q 278,282 252,290 Q 276,285 312,286 Z" fill="#1B4332"/>
    <!-- 2. Upper-left -->
    <path d="M 312,282 Q 286,254 268,235 Q 288,258 314,280 Z" fill="#1B4332"/>
    <!-- 3. Up -->
    <path d="M 312,282 Q 310,250 312,224 Q 314,250 314,280 Z" fill="#1B4332"/>
    <!-- 4. Upper-right -->
    <path d="M 312,282 Q 337,252 357,238 Q 334,258 314,280 Z" fill="#1B4332"/>
    <!-- 5. Right -->
    <path d="M 312,282 Q 344,282 370,290 Q 342,285 314,286 Z" fill="#1B4332"/>
    <!-- Coconut -->
    <circle cx="309" cy="286" r="5.5" fill="#5C3D0E"/>
    <circle cx="316" cy="284" r="5"   fill="#5C3D0E"/>

    <!-- Ground line -->
    <rect x="62" y="382" width="376" height="5" rx="2.5" fill="#0F1B18"/>

    <!-- House / roofline silhouette (front layer) -->
    <!-- Low wide ranch: peak (250,316), eaves (148,360)–(352,360), base y=382 -->
    <path d="M 148,382 L 148,360 L 250,316 L 352,360 L 352,382 Z"
          fill="#0F1B18"/>
    <!-- Coral ridge line -->
    <path d="M 148,360 L 250,316 L 352,360"
          fill="none" stroke="#E76F51" stroke-width="3.5"
          stroke-linejoin="round" stroke-linecap="round"/>
    <!-- Gold inner echo -->
    <path d="M 165,360 L 250,325 L 335,360"
          fill="none" stroke="#F4A261" stroke-width="1.8"
          stroke-linejoin="round" opacity="0.45"/>

  </g>
</svg>
