<svg xmlns="http://www.w3.org/2000/svg" viewBox="0 0 500 500" role="img" aria-label="Palm Crest Roofing">
  <defs>
    <clipPath id="icW">
      <circle cx="250" cy="250" r="188"/>
    </clipPath>
  </defs>
  <circle cx="250" cy="250" r="246" fill="none" stroke="#FFFFFF" stroke-width="6"/>
  <circle cx="250" cy="250" r="188" fill="none" stroke="#FFFFFF" stroke-width="4"/>
  <circle cx="33"  cy="250" r="9" fill="#FFFFFF"/>
  <circle cx="467" cy="250" r="9" fill="#FFFFFF"/>
  <path id="taW" d="M 33,250 A 217,217 0 0,1 467,250" fill="none"/>
  <path id="baW" d="M 33,250 A 217,217 0 0,0 467,250" fill="none"/>
  <text font-family="Montserrat,'Helvetica Neue',Arial,sans-serif"
        font-size="29" font-weight="800" letter-spacing="4" fill="#FFFFFF">
    <textPath href="#taW" startOffset="50%" text-anchor="middle">PALM CREST ROOFING</textPath>
  </text>
  <text font-family="Montserrat,'Helvetica Neue',Arial,sans-serif"
        font-size="28" font-weight="700" letter-spacing="7" fill="#FFFFFF" opacity="0.85">
    <textPath href="#baW" startOffset="50%" text-anchor="middle">PALM CREST</textPath>
  </text>
  <g clip-path="url(#icW)">
    <circle cx="268" cy="348" r="92" fill="#FFFFFF" opacity="0.10"/>
    <path d="M 212,385 C 214,340 212,295 212,250 C 212,205 214,170 215,142"
          fill="none" stroke="#FFFFFF" stroke-width="8" stroke-linecap="round" opacity="0.90"/>
    <g fill="#FFFFFF" opacity="0.90">
      <path d="M 215,142 Q 155,150 108,178 Q 148,168 215,147 Z"/>
      <path d="M 215,142 Q 172,116 132,104 Q 167,126 215,147 Z"/>
      <path d="M 215,142 Q 184,100 165,68  Q 185,108 217,140 Z"/>
      <path d="M 215,142 Q 210,100 212,62  Q 220,100 217,140 Z"/>
      <path d="M 215,142 Q 244,100 264,70  Q 245,112 217,140 Z"/>
      <path d="M 215,142 Q 266,124 305,120 Q 260,134 215,147 Z"/>
      <path d="M 215,142 Q 272,150 308,178 Q 265,162 215,147 Z"/>
    </g>
    <path d="M 314,385 C 314,362 313,342 312,282"
          fill="none" stroke="#FFFFFF" stroke-width="6" stroke-linecap="round" opacity="0.80"/>
    <g fill="#FFFFFF" opacity="0.80">
      <path d="M 312,282 Q 278,282 252,290 Q 276,285 312,286 Z"/>
      <path d="M 312,282 Q 286,254 268,235 Q 288,258 314,280 Z"/>
      <path d="M 312,282 Q 310,250 312,224 Q 314,250 314,280 Z"/>
      <path d="M 312,282 Q 337,252 357,238 Q 334,258 314,280 Z"/>
      <path d="M 312,282 Q 344,282 370,290 Q 342,285 314,286 Z"/>
    </g>
    <rect x="62" y="382" width="376" height="5" rx="2.5" fill="#FFFFFF" opacity="0.90"/>
    <path d="M 148,382 L 148,360 L 250,316 L 352,360 L 352,382 Z" fill="#FFFFFF" opacity="0.20"/>
    <path d="M 148,360 L 250,316 L 352,360"
          fill="none" stroke="#FFFFFF" stroke-width="3.5"
          stroke-linejoin="round" stroke-linecap="round"/>
  </g>
</svg>
