<svg xmlns="http://www.w3.org/2000/svg" viewBox="0 0 500 500" role="img" aria-label="Palm Crest Roofing">
  <defs>
    <linearGradient id="sg" x1="0" y1="0" x2="0" y2="1">
      <stop offset="0%"   stop-color="#FDB347"/>
      <stop offset="55%"  stop-color="#E76F51"/>
      <stop offset="100%" stop-color="#C44536"/>
    </linearGradient>
    <clipPath id="ic">
      <circle cx="250" cy="250" r="188"/>
    </clipPath>
  </defs>

  <!-- Outer ring -->
  <circle cx="250" cy="250" r="246" fill="#EDE7DA"/>
  <circle cx="250" cy="250" r="246" fill="none" stroke="#0F1B18" stroke-width="6"/>
  <!-- Inner circle -->
  <circle cx="250" cy="250" r="188" fill="#FFFBF3"/>
  <circle cx="250" cy="250" r="188" fill="none" stroke="#0F1B18" stroke-width="4"/>

  <!-- Bullet dots -->
  <circle cx="33"  cy="250" r="9" fill="#E76F51"/>
  <circle cx="467" cy="250" r="9" fill="#E76F51"/>

  <!-- Arc text paths at r=217 -->
  <path id="ta" d="M 33,250 A 217,217 0 0,1 467,250" fill="none"/>
  <path id="ba" d="M 33,250 A 217,217 0 0,0 467,250" fill="none"/>

  <text font-family="Montserrat,'Helvetica Neue',Arial,sans-serif"
        font-size="29" font-weight="800" letter-spacing="4" fill="#0F1B18">
    <textPath href="#ta" startOffset="50%" text-anchor="middle">PALM CREST ROOFING</textPath>
  </text>
  <text font-family="Montserrat,'Helvetica Neue',Arial,sans-serif"
        font-size="28" font-weight="700" letter-spacing="7" fill="#E76F51">
    <textPath href="#ba" startOffset="50%" text-anchor="middle">PALM CREST</textPath>
  </text>

  <g clip-path="url(#ic)">
    <!-- Sun disc behind everything -->
    <circle cx="268" cy="335" r="88" fill="url(#sg)"/>

    <!-- ═══ MAIN TALL PALM ═══ -->
    <!-- Trunk: slightly S-curved, base (220,392) to crown (218,140) -->
    <path d="M 220,392 C 224,320 214,245 218,140"
          fill="none" stroke="#1B4332" stroke-width="10" stroke-linecap="round"/>

    <!-- Fronds: each is a closed tapered leaf shape emanating from crown (218,140) -->
    <!-- Each frond: M crown C cp1 cp2 tip C cp3 cp4 crown Z -->
    <!-- The two C curves form the two edges of the leaf — wide in middle, pointed at tip -->

    <!-- Frond L1: far-left horizontal droop, tip (100,192) -->
    <path d="M 218,140 C 190,128 108,180 100,192 C 110,200 192,154 218,140 Z" fill="#1B4332"/>
    <!-- Frond L2: upper-left, tip (135,85) -->
    <path d="M 218,140 C 192,116 145,92 135,85 C 146,98 198,130 218,140 Z" fill="#1B4332"/>
    <!-- Frond L3: top-left, tip (168,52) -->
    <path d="M 218,140 C 207,110 174,62 168,52 C 180,70 218,126 220,140 Z" fill="#1B4332"/>
    <!-- Frond C: near-vertical, tip (218,44) -->
    <path d="M 218,140 C 212,108 215,70 218,44 C 224,70 224,108 220,140 Z" fill="#1B4332"/>
    <!-- Frond R1: top-right, tip (264,55) -->
    <path d="M 218,140 C 230,108 256,65 264,55 C 266,70 228,124 220,140 Z" fill="#1B4332"/>
    <!-- Frond R2: upper-right, tip (302,90) -->
    <path d="M 218,140 C 250,120 290,97 302,90 C 294,104 244,133 220,140 Z" fill="#1B4332"/>
    <!-- Frond R3: right horizontal droop, tip (322,162) -->
    <path d="M 218,140 C 255,134 308,145 322,162 C 308,172 250,150 218,140 Z" fill="#1B4332"/>

    <!-- Coconut cluster at crown junction -->
    <circle cx="214" cy="147" r="7"   fill="#5C3D0E"/>
    <circle cx="223" cy="144" r="6.5" fill="#5C3D0E"/>
    <circle cx="218" cy="153" r="6"   fill="#5C3D0E"/>

    <!-- ═══ SMALL PALM (right side) ═══ -->
    <!-- Trunk: base (315,392) to crown (312,278) -->
    <path d="M 315,392 C 315,358 314,322 312,278"
          fill="none" stroke="#1B4332" stroke-width="7" stroke-linecap="round"/>

    <!-- Small palm fronds from crown (312,278) -->
    <!-- Frond SL1: left, tip (255,286) -->
    <path d="M 312,278 C 290,272 260,278 255,286 C 261,293 291,284 312,278 Z" fill="#1B4332"/>
    <!-- Frond SL2: upper-left, tip (272,244) -->
    <path d="M 312,278 C 297,263 276,250 272,244 C 278,254 298,270 312,278 Z" fill="#1B4332"/>
    <!-- Frond SC: straight up, tip (312,234) -->
    <path d="M 312,278 C 308,258 310,242 312,234 C 316,242 316,260 312,278 Z" fill="#1B4332"/>
    <!-- Frond SR1: upper-right, tip (352,246) -->
    <path d="M 312,278 C 326,262 344,252 352,246 C 346,256 324,270 312,278 Z" fill="#1B4332"/>
    <!-- Frond SR2: right, tip (368,285) -->
    <path d="M 312,278 C 334,273 362,278 368,285 C 362,292 332,283 312,278 Z" fill="#1B4332"/>

    <!-- Small palm coconuts -->
    <circle cx="309" cy="282" r="5"   fill="#5C3D0E"/>
    <circle cx="317" cy="280" r="4.5" fill="#5C3D0E"/>

    <!-- Ground line -->
    <rect x="75" y="388" width="350" height="5" rx="2.5" fill="#0F1B18"/>

    <!-- ═══ HOUSE SILHOUETTE ═══ -->
    <!-- Low wide gable: peak (250,316), eaves (148,360)-(352,360), base y=390 -->
    <path d="M 148,390 L 148,360 L 250,316 L 352,360 L 352,390 Z" fill="#0F1B18"/>
    <!-- Coral ridge highlight -->
    <path d="M 148,360 L 250,316 L 352,360"
          fill="none" stroke="#E76F51" stroke-width="3.5"
          stroke-linejoin="round" stroke-linecap="round"/>
    <!-- Gold inner echo -->
    <path d="M 164,360 L 250,326 L 336,360"
          fill="none" stroke="#F4A261" stroke-width="1.8"
          stroke-linejoin="round" opacity="0.45"/>
  </g>
</svg>
